<svg id="design" xmlns="http://www.w3.org/2000/svg" viewBox="0 0 362.57489 520.25021"><title>signup</title><path d="M515.55816,366.02881c-.008-.43779-.0138-.87879-.0239-1.31389-.0232-.9905-.0545-1.9707-.0882-2.9479-.013-.3746-.0229-.7531-.0373-1.1259-.0421-1.0841-.0928-2.1576-.1473-3.2265-.013-.2571-.0231-.51781-.0369-.774q-.2166-4.02075-.5416-7.9177c-.0105-.1253-.0227-.2487-.0332-.3738q-.14505-1.72035-.3078-3.42231c-.0393-.40839-.083-.81269-.1238-1.21949-.0849-.8453-.1702-1.6904-.2616-2.5297-.0549-.5056-.114-1.00781-.1713-1.5115-.0833-.7324-.1664-1.46531-.2543-2.1939-.068-.5649-.1395-1.1275-.2103-1.69041q-.124-.98669-.2514-1.97109-.11985-.91365-.2453-1.8241-.123-.90105-.2487-1.8006-.1377-.9759-.2802-1.95-.11895-.81465-.2403-1.6285-.15825-1.0581-.3212-2.1151-.1077-.6978-.2174-1.39561-.1836-1.1685-.3716-2.33719-.08685-.5373-.1749-1.075-.22-1.34805-.4452-2.6981-.03945-.23595-.0795-.4722c-2.0247-12.053-4.3647-24.2426-6.4863-37.6814a74.06492,74.06492,0,0,0-1.756-7.80511c-.0081-.02969-.0154-.05929-.0235-.08909-.0172-.063-.0355-.1265-.0527-.1895q-.21975-.8022-.4468-1.607c-1.714-6.0769-3.6793-12.2672-4.1286-18.3199-.0035-.0461-.0063-.0922-.0096-.1383a31.73858,31.73858,0,0,1-.0481-3.7735c.0037-.0751.0068-.1503.0112-.2254.0346-.6086.0878-1.2154.1642-1.8197.0071-.056.0168-.1118.0242-.1678q.11355-.85125.288-1.6959c.0142-.0686.0256-.1373.0404-.2057.124-.576.2741-1.149.4442-1.7198.034-.1137.0706-.2272.1065-.3408.1818-.5768.3805-1.15161.6137-1.72261l.0002-.00029a5.60068,5.60068,0,0,1,.824-1.3326c-.9136-41.5817-1.1633-84.1659-21.1531-120.6934a14.67552,14.67552,0,0,1-1.6336-9.27,28.49776,28.49776,0,0,0-4.4676-.7125c-13.3523-1.0986-34.0343,4.38449-44.8866,11.59089a26.28715,26.28715,0,0,0-4.091,3.2577c-8.5512-6.7046-21.8846-28.78819-30.237-37.73719-4.5644-4.8958-7.2001-8.6191-7.6421,1.752-.4356,10.2218-.0378,32.737.6439,42.96438,1.2311,22.22551-28.7218,85.209,69.8207,114.95361,5.4813,2.4091,10.7018,4.6695,13.5529,9.6953a84.99485,84.99485,0,0,0-19.0706,4.5487c-16.1945,5.6587-34.3153,11.7842-52.5629,16.4463,6.3481-26.8973,3.1099-52.01791-15.6132-61.6376a34.63706,34.63706,0,0,0-19.788-3.915c-15.2171-1.0492-23.7037,13.9796-10.5626,28.3186,6.5436,7.2254,15.6819,13.5039,6.411,39.953q-.80985,2.34255-1.7808,4.5456c-23.8548,1.75949-45.356-2.0289-59.8579-16.36351,9.0139,24.009,23.4913,36.54351,40.0403,41.96121-10.1334,8.6471-22.1164,15.568-33.6293,22.6316-30.8241,18.9586-68.3243,39.0061-82.2354,82.2261-28.0874,87.69009,21.5532,111.55389,62.7277,126.13737.8239,12.95462,10.2092,17.723,28.3714,17.847,45.9858.3139,87.6763.3139,112.3589,0,.0473.2178.1231,4.549.2367,4.7573.9565,2.1117,4.072,4.2046,6.1743,4.9433a43.39555,43.39555,0,0,0,9.7273,2.8646c.0273.0036.0536.0063.0806.0097.3902.048.7622.0818,1.1105.0971l.0268.0016c.3456.0144.6702.0118.9781-.0045.0492-.0025.0962-.007.1444-.0103.2634-.0183.5148-.0468.7527-.087.0368-.0062.0759-.0104.1122-.0171a6.15694,6.15694,0,0,0,.7263-.1807c.0495-.0156.0967-.0335.145-.0502a5.31994,5.31994,0,0,0,.5437-.2209c.0394-.0186.0807-.0353.1192-.0548.0193-.0097.0407-.0175.0598-.0275.0703-.0367.13-.0847.1977-.1241.1448-.0843.2892-.1694.423-.2658.0825-.0594.1596-.1258.2383-.1897.122-.0987.243-.1994.357-.3082.0734-.0701.1442-.1447.2146-.2188.1124-.118.2231-.2396.3292-.3672.061-.0736.1216-.1491.181-.2258q.1701-.2193.3336-.4547c.0444-.0643.0895-.1287.1333-.1946q.19575-.29415.3867-.6097c.0166-.0274.0335-.0542.0501-.0817.4652-.7759.9217-1.633,1.4461-2.5452a14.96433,14.96433,0,0,0,1.0364-2.3117c2.2085-6.1846.6786-13.6989,1.283-20.46468,41.9816-40.63622,54.3454-85.11362,60.0433-125.19721.0768-.5403.1574-1.083.2319-1.6217q.3672-2.6646.6843-5.2512c.0541-.4396.1001-.8666.1522-1.3031.1522-1.2742.3015-2.5441.4367-3.7924.0584-.53841.1086-1.0647.1638-1.59841.1169-1.12949.2322-2.25679.3355-3.36589.0526-.5649.0984-1.1197.1475-1.6795.0929-1.0579.1838-2.1131.2644-3.153.0444-.5722.0835-1.13661.1243-1.70361.0729-1.01169.1428-2.01939.2045-3.01469.0348-.5624.0656-1.1192.097-1.6765q.08265-1.47375.151-2.9269.0381-.8274.0703-1.6465.05775-1.43895.1006-2.8572.024-.79725.0435-1.5886.0345-1.42395.0533-2.8261c.007-.50651.0142-1.0132.0183-1.5158q.0117-1.4202.0069-2.8185c-.0011-.47721-.0009-.95621-.0045-1.4299C515.59016,367.91681,515.57546,366.971,515.55816,366.02881Zm-169.981-21.43559c-.0415.0345-.0811.0694-.1226.1039-1.4004,1.1634-2.8365,2.3222-4.2932,3.4799Q343.41136,346.38887,345.57716,344.59322Zm-42.8986,30.9261c1.0266-.68651,2.0338-1.363,3.0447-2.0414-1.0109.6784-2.0181,1.35489-3.0446,2.0414q-1.2465.83745-2.4597,1.6819Q301.43216,376.35687,302.67856,375.51932Zm-13.7658,10.2896q-2.09655,1.752-4.0623,3.5263Q286.81621,387.56147,288.91276,385.80892Zm157.8793-97.8476c-23.4072,41.5116-65.3757,89.5984-96.705,88.1021,10.8042,6.8769,20.8028,10.2728,30.0132,11.076a212.41852,212.41852,0,0,1-40.0539,14.4218c-31.1177,8.0398-58.7884,29.8865-66.4684,80.66339-22.7747-32.5287-12.3295-73.7788,36.6765-106.70529,12.7798-8.5469,24.3563-16.438,34.6345-24.3309,17.5307-13.4624,31.266-26.9444,40.7716-43.6809,27.1106-6.3056,51.7012-20.1253,61.1831-25.376,1.8778-1.038,3.9697-2.2946,6.2071-3.6341A75.762,75.762,0,0,0,446.79206,287.96132Zm19.4036-.7398c.6762-2.153,1.422-4.2532,2.2609-6.2199C467.77256,283.02132,467.01186,285.10562,466.19566,287.22152Z" transform="translate(-213.04998 -48.61292)" fill="#1b1763" fill-opacity="0.7"/><path d="M515.97689,269.21641c-12.4923-9.9522-13.9864-7.09141-23.3648-5.3059-12.7752,2.4334-15.3496,28.3266-19.2899,39.2467-7.3311,20.3279-43.5247,110.15469-110.3006,67.65249,31.3293,1.4962,73.2978-46.59059,96.705-88.10219,13.6889-24.2766,32.5435-32.1082,55.26941-16.9244Z" transform="translate(-213.04998 -48.61292)" fill="#e03a87"/><path d="M357.82349,345.93461c-10.27819,7.893-21.85459,15.784-34.63449,24.33089-49.0061,32.9264-59.4512,74.1768-36.6764,106.7054q-.5967,3.93465-1.0322,8.1156c-30.8241-33.5514-23.0494-79.0915,30.1328-114.821,16.2758-10.8848,30.5997-20.70609,42.7758-30.82219" transform="translate(-213.04998 -48.61292)" fill="#ffa60d" fill-rule="evenodd"/><path d="M388.657,306.25041c.08079-.1287.15659-.2612.23689-.39041C388.81359,305.98921,388.73779,306.12171,388.657,306.25041Z" transform="translate(-213.04998 -48.61292)" fill="#ffc50d"/><path d="M367.49119,331.41811q.538-.5052,1.0689-1.0128Q368.029,330.91261,367.49119,331.41811Z" transform="translate(-213.04998 -48.61292)" fill="#ffc50d"/><path d="M373.276,325.70771c.24829-.2583.50229-.5145.748-.7738C373.77829,325.19321,373.52439,325.44941,373.276,325.70771Z" transform="translate(-213.04998 -48.61292)" fill="#ffc50d"/><path d="M390.56029,303.08781c.2068-.3566.40571-.7195.60871-1.0791C390.966,302.36831,390.76719,302.73111,390.56029,303.08781Z" transform="translate(-213.04998 -48.61292)" fill="#ffc50d"/><path d="M386.00569,310.25211c.2126-.3076.4306-.6119.64-.9216C386.43629,309.64021,386.21829,309.94451,386.00569,310.25211Z" transform="translate(-213.04998 -48.61292)" fill="#ffc50d"/><path d="M381.40679,316.44841q.43545-.5472.8626-1.0995Q381.84131,315.90031,381.40679,316.44841Z" transform="translate(-213.04998 -48.61292)" fill="#ffc50d"/><path d="M392.36859,299.82971c.2192-.4111.4341-.8261.64841-1.2412C392.80269,299.00371,392.58789,299.41861,392.36859,299.82971Z" transform="translate(-213.04998 -48.61292)" fill="#ffc50d"/><path d="M376.58,322.16451c.16159-.1801.31619-.3634.47649-.544C376.89619,321.80111,376.74159,321.98441,376.58,322.16451Z" transform="translate(-213.04998 -48.61292)" fill="#ffc50d"/><path d="M383.70909,313.45381c.271-.3642.5431-.7281.8095-1.0951C384.25209,312.72581,383.98019,313.08951,383.70909,313.45381Z" transform="translate(-213.04998 -48.61292)" fill="#ffc50d"/><path d="M379.03519,319.34221c.2777-.3279.5482-.6598.82181-.9898C379.58339,318.68241,379.31289,319.01431,379.03519,319.34221Z" transform="translate(-213.04998 -48.61292)" fill="#ffc50d"/><path d="M371.35239,327.67671c-.3295.33029-.6647.6585-.9985.9872C370.68759,328.33521,371.023,328.00691,371.35239,327.67671Z" transform="translate(-213.04998 -48.61292)" fill="#ffc50d"/><path d="M395.76769,292.83041c.1642-.3721.3332-.7402.4937-1.1156C396.10089,292.09031,395.93189,292.45821,395.76769,292.83041Z" transform="translate(-213.04998 -48.61292)" fill="#ffc50d"/><path d="M361.58939,336.73191c.2452-.2117.483-.4251.7264-.6371C362.07229,336.30691,361.83469,336.52021,361.58939,336.73191Z" transform="translate(-213.04998 -48.61292)" fill="#ffc50d"/><path d="M394.09409,296.44031c.2037-.418.4075-.8361.6063-1.2582C394.50159,295.60431,394.29779,296.02231,394.09409,296.44031Z" transform="translate(-213.04998 -48.61292)" fill="#ffc50d"/><path d="M364.57819,334.09631c.3472-.312.688-.6259,1.0312-.9389C365.26619,333.47051,364.92539,333.78431,364.57819,334.09631Z" transform="translate(-213.04998 -48.61292)" fill="#ffc50d"/><path d="M388.02859,207.58431c22.5001,12.95469,22.6326,47.311,9.678,80.5878-.4624,1.1988-.947,2.377-1.4452,3.5427-.1605.3754-.3295.7435-.4937,1.1156-.3486.7901-.7021,1.5761-1.0673,2.3517-.1988.4221-.4026.8402-.6063,1.2582q-.5277,1.083-1.07709,2.1482c-.21431.4151-.42921.8301-.64841,1.2412-.3911.73329-.7929,1.4581-1.19959,2.179-.203.3596-.40191.7225-.60871,1.0791q-.8127,1.40129-1.6664,2.77219c-.0803.12921-.1561.26171-.23689.39041q-.97846,1.5591-2.01131,3.0801c-.2094.3097-.4274.614-.64.9216-.4885.7068-.9818,1.4106-1.4871,2.1066-.2664.367-.5385.7309-.8095,1.0951q-.70963.9534-1.4397,1.8951-.42809.5514-.8626,1.0995-.7626.9585-1.54979,1.904c-.27361.33-.54411.6619-.82181.9898q-.9717,1.1478-1.9787,2.2783c-.1603.1806-.3149.3639-.47649.544q-1.25236,1.3959-2.556,2.7694c-.24571.2593-.49971.5155-.748.7738-.63381.6592-1.27271,1.3165-1.92361,1.969-.32939.3302-.6648.6585-.9985.9872q-.8874.87375-1.7938,1.7414-.53114.5073-1.0689,1.0128-.92955.8727-1.8818,1.7393c-.3432.313-.684.6269-1.0312.9389q-1.1157,1.00275-2.2624,1.9985c-.2434.212-.4812.4254-.7264.6371q-1.515,1.30785-3.0777,2.6075c-.0414.0345-.0811.0694-.1226.1039l-.5656,6.4913c22.189-17.0397,38.3271-34.0882,47.4589-57.7625,12.9547-33.2768,13.4152-68.7227-9.678-80.5878a34.63867,34.63867,0,0,0-19.7881-3.9151,23.35447,23.35447,0,0,1,2.392.27879A30.68792,30.68792,0,0,1,388.02859,207.58431Z" transform="translate(-213.04998 -48.61292)" fill="#ffa60d"/><path d="M535.98429,108.44531c-3.71229-23.665-8.504-42.5287-14.2615-56.7145-.3883-.9375-.7671-1.8466-1.1554-2.7462-3.8951-4.54361-22.9357,33.7029-26.8657,52.80339-.1231.60611-.23669,1.18381-.3314,1.74251a22.97748,22.97748,0,0,0-7.6801-1.7803c-13.3523-1.0986-34.0343,4.3845-44.8866,11.591a26.29162,26.29162,0,0,0-4.091,3.2576c-8.5512-6.7046-21.88459-28.7882-30.237-37.7371-4.5644-4.8959-7.2001-8.6192-7.6421,1.752-.4356,10.2217-.0378,32.737.644,42.96429,1.231,22.22551-28.7219,85.209,69.8206,114.95361,9.0058,3.9583,17.3202,7.5,15.5494,23.5986-1.5057,12.13079-11.0513,33.8166-18.8164,47.99279-21.4113,39.54581-52.6425,70.6444-113.0502,86.1844-31.11769,8.0398-58.78839,29.8866-66.46829,80.6635q-.5967,3.93465-1.0322,8.1156c-30.8241-33.5514-23.0494-79.0916,30.1328-114.821,16.3313-10.922,30.6956-20.7735,42.89849-30.92609q1.5627-1.3,3.0777-2.6075c.2453-.2117.4829-.425.7264-.6371q1.14345-.9966,2.2624-1.9985c.3472-.312.688-.6258,1.0312-.9389q.95041-.867,1.8818-1.7393.53821-.5052,1.0689-1.0128.90795-.86715,1.7938-1.7414c.3338-.3287.669-.65691.9985-.9872.651-.6525,1.2897-1.3098,1.92361-1.969.24839-.2583.50229-.5145.748-.7738q1.30214-1.3743,2.556-2.7694c.16159-.1801.31619-.3634.47649-.544q1.0044-1.1319,1.9787-2.2783c.2777-.3279.5482-.6598.82181-.9898q.78493-.94665,1.54979-1.904.4356-.54735.8626-1.0995.731-.94095,1.4397-1.8951c.2711-.3643.543-.728.8095-1.0951.5053-.6961.9986-1.3998,1.4871-2.1066.2126-.3076.4306-.6119.64-.9216q1.03-1.52327,2.01131-3.0801c.08079-.1287.15659-.2612.23689-.39041q.85275-1.37174,1.6664-2.77219c.2069-.3567.40571-.7195.60871-1.0791.40669-.7209.80849-1.44571,1.19959-2.179.2193-.4111.4341-.826.64841-1.2412q.54973-1.06485,1.07709-2.1482c.2037-.418.4075-.836.6063-1.2582.3652-.7757.7187-1.5615,1.0673-2.3517.1642-.3722.3332-.7401.4937-1.1156.4982-1.16581.9828-2.34381,1.4452-3.5427,12.9546-33.2768,12.8221-67.63311-9.678-80.5878-3.4282-1.9318-16.40859-2.1385-19.4958-2.6688a69.15659,69.15659,0,0,1,7.2835-1.2463c-15.2172-1.049-23.7037,13.9797-10.5626,28.3187,6.5437,7.2254,15.6819,13.5039,6.411,39.953-9.00569,26.0513-33.00209,39.1386-55.22759,52.775-30.8242,18.9585-68.3244,39.006-82.2355,82.226-28.0874,87.6901,21.5532,111.5539,62.7277,126.1374.8239,12.95461,10.2091,17.72305,28.3714,17.847,45.98579.31391,87.67619.31391,112.35889,0,.04741.21776.1231,4.549.2367,4.7573.9565,2.1117,4.072,4.20455,6.1743,4.94326,8.2293,3.2196,12.1497,3.5606,14.5266,2.32,1.9603-1.0227,2.8694-3.125,4.2899-5.58713,3.6837-6.55311,1.6382-15.14214,2.3201-22.77477,42.5477-41.1841,54.6784-86.317,60.2751-126.8192,8.0398-58.36219-1.5057-89.31889-8.5891-134.18669-2.0455-12.9546-9.96219-27.1308-4.7728-39.8203C516.75119,222.16781,612.92609,182.03491,535.98429,108.44531Z" transform="translate(-213.04998 -48.61292)" fill="#ffc50d"/><path d="M377.05649,321.62051q1.0044-1.13177,1.9787-2.2783Q378.06349,320.49,377.05649,321.62051Z" transform="translate(-213.04998 -48.61292)" fill="#ffc50d"/><path d="M374.024,324.93391q1.30214-1.3743,2.556-2.7694Q375.3275,323.56056,374.024,324.93391Z" transform="translate(-213.04998 -48.61292)" fill="#ffc50d"/><path d="M358.51169,339.33941q1.56255-1.3,3.0777-2.6075Q360.07424,338.03991,358.51169,339.33941Z" transform="translate(-213.04998 -48.61292)" fill="#ffc50d"/><path d="M368.56009,330.40531q.9078-.867,1.7938-1.7414Q369.46649,329.53766,368.56009,330.40531Z" transform="translate(-213.04998 -48.61292)" fill="#ffc50d"/><path d="M365.60939,333.15741q.95041-.86685,1.8818-1.7393Q366.56134,332.29094,365.60939,333.15741Z" transform="translate(-213.04998 -48.61292)" fill="#ffc50d"/><path d="M362.31579,336.09481q1.14331-.99645,2.2624-1.9985Q363.46234,335.09906,362.31579,336.09481Z" transform="translate(-213.04998 -48.61292)" fill="#ffc50d"/><path d="M396.26139,291.71481c.4982-1.1657.9828-2.3439,1.4452-3.5427C397.24419,289.371,396.75959,290.549,396.26139,291.71481Z" transform="translate(-213.04998 -48.61292)" fill="#ffc50d"/><path d="M394.70039,295.18211c.3652-.7756.7187-1.5616,1.0673-2.3517C395.41909,293.62061,395.06559,294.40641,394.70039,295.18211Z" transform="translate(-213.04998 -48.61292)" fill="#ffc50d"/><path d="M388.02859,207.58431a30.68792,30.68792,0,0,0-9.8203-3.63631,23.35447,23.35447,0,0,0-2.392-.27879,69.15659,69.15659,0,0,0-7.2835,1.2463C371.62,205.44581,384.60039,205.65251,388.02859,207.58431Z" transform="translate(-213.04998 -48.61292)" fill="#ffc50d"/><path d="M393.017,298.58851q.54959-1.06485,1.07709-2.1482Q393.56639,297.52331,393.017,298.58851Z" transform="translate(-213.04998 -48.61292)" fill="#ffc50d"/><path d="M373.276,325.70771c-.63391.6592-1.27261,1.3165-1.92361,1.969C372.00329,327.02421,372.64219,326.36691,373.276,325.70771Z" transform="translate(-213.04998 -48.61292)" fill="#ffc50d"/><path d="M386.64569,309.33051q1.03-1.52327,2.01131-3.0801Q387.67854,307.80951,386.64569,309.33051Z" transform="translate(-213.04998 -48.61292)" fill="#ffc50d"/><path d="M382.26939,315.34891q.731-.94095,1.4397-1.8951Q382.99929,314.40736,382.26939,315.34891Z" transform="translate(-213.04998 -48.61292)" fill="#ffc50d"/><path d="M384.51859,312.35871c.5053-.696.9986-1.3998,1.4871-2.1066C385.51719,310.95891,385.02389,311.66261,384.51859,312.35871Z" transform="translate(-213.04998 -48.61292)" fill="#ffc50d"/><path d="M379.857,318.35241q.78478-.9465,1.54979-1.904Q380.644,317.40691,379.857,318.35241Z" transform="translate(-213.04998 -48.61292)" fill="#ffc50d"/><path d="M391.169,302.00871c.40669-.7209.80849-1.44571,1.19959-2.179C391.97749,300.563,391.57569,301.28781,391.169,302.00871Z" transform="translate(-213.04998 -48.61292)" fill="#ffc50d"/><path d="M388.89389,305.86q.8526-1.37174,1.6664-2.77219Q389.74744,304.4891,388.89389,305.86Z" transform="translate(-213.04998 -48.61292)" fill="#ffc50d"/><path d="M468.40789,508.6189c-.96589-.0379-2.1685-3.0777-1.8371-4.858,3.8163-20.9945,11.1838-38.0401,9.2709-57.1311-.1136-.9281,6.3069-4.6308,8.21031-.8145a6.04721,6.04721,0,0,1,.52079,2.7179c-.2556,19.4319-3.5417,32.1593-7.68,42.5192,0,.0095-.0094.019-.0094.0285-2.4716,6.2122-5.2463,11.5815-7.8599,17.0456C468.84349,508.4863,468.63519,508.6283,468.40789,508.6189Z" transform="translate(-213.04998 -48.61292)" fill="#ffae0d" fill-rule="evenodd"/><path d="M411.47569,517.3974c6.2784-11.7236,17.8694-20.4547,21.004-33.4094,4.3655-18.4093-6.1365-37.9075-12.2729-54.9531,3.6838.5493,8.4565-3.2671,10.502-4.3655.2367,1.2121.5114,2.4811.8144,3.7879,3.2386,14.2235,9.4793,33.3241,10.2273,46.8091.966,17.5853-1.9412,33.7786-3.27649,51.1462-.161,2.1591-.30311,4.3371-.40721,6.5341C431.93989,525.4467,420.88859,519.9921,411.47569,517.3974Z" transform="translate(-213.04998 -48.61292)" fill="#ffae0d" fill-rule="evenodd"/><path d="M518.39989,282.76341c6.8176,40.1307,14.56711,70.69719,7.0825,125.00269-5.6013,40.5035-17.7258,85.6372-60.2796,126.8175-.67679,7.63188,1.3636,16.225-2.315,22.77779-2.5603,4.45351-3.4824,7.71031-11.8695,5.58161,1.9619-1.0202,2.8742-3.11941,4.2965-5.58161,3.6786-6.55276,1.6383-15.14591,2.3151-22.77779,40.0229-38.7279,77.5247-132.8896,48.5767-268.98689C512.91639,270.992,517.27179,280.21291,518.39989,282.76341Z" transform="translate(-213.04998 -48.61292)" fill="#f9ed32" fill-rule="evenodd"/><path d="M512.12179,233.755c-4.1494,10.15291.0883,21.25721,2.9919,31.93-2.74669-6.90589-6.8961-11.58509-12.154-14.39059q-1.442-5.9739-3.0606-12.0559c-3.2077-12.0559,118.3618-51.5981,29.4776-130.7904-3.7178-23.6704-10.2313-61.7019-8.8089-59.4653,6.2781,14.45919,11.4575,34.2353,15.4206,59.4653C612.92449,182.03921,516.75189,222.16991,512.12179,233.755Z" transform="translate(-213.04998 -48.61292)" fill="#f9ed32" fill-rule="evenodd"/><path d="M440.32939,216.43641a.94695.94695,0,0,1-.5072-1.7473l47.1819-29.864a.94736.94736,0,0,1,1.0136,1.6008l-47.1829,29.864A.94139.94139,0,0,1,440.32939,216.43641Zm-3.2737-17.0451a.94723.94723,0,0,1-.2908-1.8486l47.3188-15.2728a.94711.94711,0,1,1,.5826,1.8024l-47.3197,15.2728A.94052.94052,0,0,1,437.05569,199.39131Zm117.0025-11.5917a.95791.95791,0,0,1-.1257-.0083l-47.04649-6.2728a.94692.94692,0,1,1,.24969-1.8773l47.0465,6.27279a.94693.94693,0,0,1-.124,1.88561Zm-44.7298-10.3635a.947.947,0,0,1-.1545-1.88111l45.9552-7.63629a.94684.94684,0,0,1,.3108,1.868l-45.9552,7.6364A.95445.95445,0,0,1,509.32839,177.43611Z" transform="translate(-213.04998 -48.61292)" fill="#231f20"/><path d="M502.05309,202.65531a.94743.94743,0,0,1-.9386-.8272,135.69713,135.69713,0,0,0-2.939-14.329c-.295-1.1999-.5456-2.2209-.7158-2.9862a.94731.94731,0,0,1,1.8496-.4106c.1674.7542.4152,1.7613.7056,2.945a137.49181,137.49181,0,0,1,2.9787,14.5413.94794.94794,0,0,1-.8203,1.0593A.96292.96292,0,0,1,502.05309,202.65531Z" transform="translate(-213.04998 -48.61292)" fill="#ff6230"/><path d="M504.69239,172.53471c1.6554,3.182-2.4653,12.6724-6.0712,13.4302-4.177.8778-13.8495-8.2861-13.1633-9.6122C487.81759,171.79211,503.11939,169.51111,504.69239,172.53471Z" transform="translate(-213.04998 -48.61292)" fill="#ff4fa1" fill-rule="evenodd"/><path d="M529.78359,130.80711c-5.5903,1.2272-21.4872-3.6756-29.864,26.3184,30.1186,2.8603,30.2737-22.0912,33.2737-25.5004C540.14769,123.71591,534.55639,129.716,529.78359,130.80711Z" transform="translate(-213.04998 -48.61292)" fill="#11319c"/><path d="M440.23389,157.19291c5.3007-2.1586,15.6159-15.2104,39.5218,4.7476-23.1882,19.4323-37.4626-1.0333-41.86669-2.1406C427.67609,157.22761,435.68369,159.00011,440.23389,157.19291Z" transform="translate(-213.04998 -48.61292)" fill="#11319c"/><path d="M510.96529,138.03431c1.4999-1.0907,4.77271.818,7.2281,4.36369,2.3509,3.26541,3.0942,7.25531,1.5,8.31831-1.5,1.0908-4.9097-.8184-7.2282-4.2276-2.4544-3.5452-3.1359-7.2272-1.4999-8.4544Z" transform="translate(-213.04998 -48.61292)" fill="#231f20" fill-rule="evenodd"/><path d="M460.78029,152.89481c1.9425,0,3.4975,3.4975,3.4975,7.6429,0,4.275-1.555,7.7729-3.4975,7.7729-1.94329,0-3.6275-3.4979-3.6275-7.7729C457.15279,156.39231,458.837,152.89481,460.78029,152.89481Z" transform="translate(-213.04998 -48.61292)" fill="#231f20" fill-rule="evenodd"/><path d="M499.637,206.69411a15.83652,15.83652,0,0,1-5.12951-.8137,10.8469,10.8469,0,0,1-7.4412-8.58841,1.19349,1.19349,0,1,1,2.3479-.43019,8.4647,8.4647,0,0,0,5.8686,6.7605,16.12534,16.12534,0,0,0,14.8544-3.10631,8.56511,8.56511,0,0,0,2.9553-8.51959,1.19343,1.19343,0,1,1,2.3316-.5106,10.91161,10.91161,0,0,1-3.69909,10.8133A18.61788,18.61788,0,0,1,499.637,206.69411Z" transform="translate(-213.04998 -48.61292)" fill="#ff6230"/><path d="M518.39989,282.76341c-1.1281-2.5505-5.4835-11.77141-12.1933-17.1667q-1.50075-7.0776-3.2469-14.3023c5.2579,2.8055,9.40731,7.4847,12.154,14.39059a75.59142,75.59142,0,0,1,1.7755,7.89671C517.37969,276.71091,517.88979,279.76171,518.39989,282.76341Z" transform="translate(-213.04998 -48.61292)" fill="#ff8ad2"/><path d="M502.95969,251.29441q1.751,7.22475,3.2469,14.3023a21.11915,21.11915,0,0,0-2.7858-1.9325c-12.9683-7.45521-32.2145,6.8961-43.6426,13.2135C438.52089,288.64911,341.338,343.52361,310.026,260.123c33.166,32.78341,102.94109,10.40791,153.75439-7.34729C479.38739,247.32161,493.11089,246.02671,502.95969,251.29441Z" transform="translate(-213.04998 -48.61292)" fill="#ff4fa1"/><path d="M553.48539,112.02891l-.4066.1025c-23.4326,5.9083-35.9097,14.1137-45.9423,20.7061-6.738,4.4251-12.5552,8.25-20.03849,10.1369-7.43721,1.8503-14.39371,1.2067-22.45031.4585-12.0262-1.1161-26.9898-2.50991-50.7612,3.4158-9.4989,2.3951-18.754,8.5982-17.392,14.0146.5633,2.2629,2.5761,3.1238,5.353,4.3102,3.931,1.6816,9.8602,4.2168,17.5747,12.287,7.7385,8.1107,24.7822,15.0474,37.1293,11.9733l.0034-.00081c11.0024-2.77419,19.1548-7.05209,24.3295-12.83049,4.2429-5.7539,5.8062-11.8474,6.9492-16.2983.6196-2.4108,1.3908-5.4171,2.187-5.6179.902-.2274,2.6056,1.5691,4.5821,3.6469a60.85877,60.85877,0,0,0,13.9141,11.4809c7.1873,2.62889,16.4869,2.553,27.6465-.2356l.0402-.0101c10.90151-2.7487,23.4472-15.7989,26.84351-27.9355,3.01459-10.74691,7.06649-15.7776,9.74789-19.1012,1.89011-2.3525,3.2632-4.0492,2.7039-6.3094C574.12389,110.76961,563.00539,109.65371,553.48539,112.02891Zm-17.6783,55.967h0l.0017.0069Z" transform="translate(-213.04998 -48.61292)" fill="#262094"/><path d="M471.69669,177.39931a32.61131,32.61131,0,0,1-13.6744,7.4552c-13.5274,3.3647-34.2647-3.1096-38.2375-19.0501-.7652-3.0802-.6181-5.8759,1.1084-8.3479,2.1287-3.041,6.6313-5.6012,14.7535-7.6318,14.734-3.6688,42.3282,1.8246,44.4666,10.3981C481.30029,164.99021,477.76879,171.97461,471.69669,177.39931Z" transform="translate(-213.04998 -48.61292)" fill="#21cfcb"/><path d="M546.74939,158.48651a35.29108,35.29108,0,0,1-14.3219,7.8084c-13.5469,3.3744-29.1343-3.659-31.057-11.3692-.7651-3.0802,1.55-7.3474,5.513-11.7323l.02951-.0293c7.07259-7.7986,19.39339-15.9503,28.83019-18.3047,14.7436-3.6785,19.7956-.2059,21.5024,6.6509C559.79609,141.71221,554.45969,151.71791,546.74939,158.48651Z" transform="translate(-213.04998 -48.61292)" fill="#21cfcb"/><path d="M471.69669,177.39931a32.61131,32.61131,0,0,1-13.6744,7.4552c-13.5274,3.3647-34.2647-3.1096-38.2375-19.0501-.7652-3.0802-.6181-5.8759,1.1084-8.3479,2.5701-1.903,6.4645-3.5706,12.0952-4.9734,14.7339-3.6688,42.3281,1.8246,44.4665,10.3981C478.45549,166.89331,476.10119,172.48471,471.69669,177.39931Z" transform="translate(-213.04998 -48.61292)" fill="#1b48c6"/><path d="M546.74939,158.48651a35.29108,35.29108,0,0,1-14.3219,7.8084c-13.5469,3.3744-29.1343-3.659-31.057-11.3692-.7651-3.0802,1.55-7.3474,5.513-11.7323l.02951-.0293c7.20009-6.59211,17.27449-12.7524,25.27909-14.7536,14.7535-3.6786,19.7956-.2158,21.5123,6.6411C555.833,143.59571,552.43889,152.00241,546.74939,158.48651Z" transform="translate(-213.04998 -48.61292)" fill="#1b48c6"/></svg>